<svg xmlns="http://www.w3.org/2000/svg" width="20" height="20" viewBox="0 0 20 20">
  <path id="calendar-days" d="M15.833,1.683V1.25a1.25,1.25,0,0,0-2.5,0v.417H6.667V1.25a1.25,1.25,0,0,0-2.5,0v.433A4.6,4.6,0,0,0,0,6.25v9.167A4.591,4.591,0,0,0,4.583,20H15.417A4.591,4.591,0,0,0,20,15.417V6.25A4.6,4.6,0,0,0,15.833,1.683Zm-7.5,9.983V8.333h3.333v3.333Zm3.333,2.5V17.5H8.333V14.167ZM2.5,8.333H5.833v3.333H2.5Zm11.667,0H17.5v3.333H14.167ZM4.583,4.167H15.417a2.084,2.084,0,0,1,2.042,1.667H2.542A2.084,2.084,0,0,1,4.583,4.167ZM2.5,15.417v-1.25H5.833V17.5H4.583A2.084,2.084,0,0,1,2.5,15.417ZM15.417,17.5h-1.25V14.167H17.5v1.25A2.084,2.084,0,0,1,15.417,17.5Z" fill="#333"/>
</svg>
