<svg xmlns="http://www.w3.org/2000/svg" width="20" height="20" viewBox="0 0 20 20">
  <path id="category-alt" d="M15.417,0H4.583A4.589,4.589,0,0,0,0,4.583V15.417A4.589,4.589,0,0,0,4.583,20H15.417A4.589,4.589,0,0,0,20,15.417V4.583A4.589,4.589,0,0,0,15.417,0ZM17.5,15.417A2.086,2.086,0,0,1,15.417,17.5H4.583A2.086,2.086,0,0,1,2.5,15.417V4.583A2.086,2.086,0,0,1,4.583,2.5H15.417A2.086,2.086,0,0,1,17.5,4.583Zm-8.333-10v2.5a1.25,1.25,0,0,1-1.25,1.25h-2.5a1.25,1.25,0,0,1-1.25-1.25v-2.5a1.25,1.25,0,0,1,1.25-1.25h2.5A1.25,1.25,0,0,1,9.167,5.417Zm6.667,0v2.5a1.25,1.25,0,0,1-1.25,1.25h-2.5a1.25,1.25,0,0,1-1.25-1.25v-2.5a1.25,1.25,0,0,1,1.25-1.25h2.5A1.25,1.25,0,0,1,15.833,5.417ZM9.167,12.083v2.5a1.25,1.25,0,0,1-1.25,1.25h-2.5a1.25,1.25,0,0,1-1.25-1.25v-2.5a1.25,1.25,0,0,1,1.25-1.25h2.5A1.25,1.25,0,0,1,9.167,12.083Zm6.667,0v2.5a1.25,1.25,0,0,1-1.25,1.25h-2.5a1.25,1.25,0,0,1-1.25-1.25v-2.5a1.25,1.25,0,0,1,1.25-1.25h2.5A1.25,1.25,0,0,1,15.833,12.083Z" fill="#333"/>
</svg>
