<svg id="interrogation" xmlns="http://www.w3.org/2000/svg" width="20" height="20" viewBox="0 0 20 20">
  <path id="Tracciato_1" data-name="Tracciato 1" d="M10,0A10,10,0,1,0,20,10,10,10,0,0,0,10,0Zm0,17.5A7.5,7.5,0,1,1,17.5,10,7.5,7.5,0,0,1,10,17.5Z" fill="#333"/>
  <circle id="Ellisse_2" data-name="Ellisse 2" cx="1.5" cy="1.5" r="1.5" transform="translate(8.504 12.952)" fill="#333"/>
  <path id="Tracciato_2" data-name="Tracciato 2" d="M12.757,4.987a4.25,4.25,0,0,0-5,4.181,1.5,1.5,0,0,0,3,0,1.248,1.248,0,1,1,1.847,1.1,3.323,3.323,0,0,0-2.038,3.158,1.5,1.5,0,0,0,3,0,1.274,1.274,0,0,1,.016-.218,1.852,1.852,0,0,1,.471-.313,4.248,4.248,0,0,0-1.292-7.9Z" transform="translate(-2.001 -1.406)" fill="#333"/>
</svg>
