<svg xmlns="http://www.w3.org/2000/svg" width="20" height="19.144" viewBox="0 0 20 19.144">
  <path id="list-check" d="M3.75,5.837a2.9,2.9,0,0,1-2.062-.854L.416,3.854A1.251,1.251,0,1,1,2.083,1.988L3.4,3.166a.487.487,0,0,0,.347.172.417.417,0,0,0,.294-.122L7.054.349a1.25,1.25,0,0,1,1.723,1.81L5.789,5A2.874,2.874,0,0,1,3.75,5.837ZM20,2.921a1.25,1.25,0,0,0-1.25-1.25H12.082a1.25,1.25,0,0,0,0,2.5h6.666A1.25,1.25,0,0,0,20,2.921ZM5.789,11.67,8.778,8.825a1.25,1.25,0,0,0-1.723-1.81L4.044,9.882a.417.417,0,0,1-.589,0L2.134,8.561A1.25,1.25,0,1,0,.366,10.329l1.322,1.321a2.916,2.916,0,0,0,4.1.021ZM20,9.587a1.25,1.25,0,0,0-1.25-1.25H12.082a1.25,1.25,0,0,0,0,2.5h6.666A1.25,1.25,0,0,0,20,9.587ZM5.789,18.337l2.988-2.845a1.25,1.25,0,0,0-1.723-1.81L4.044,16.548a.417.417,0,0,1-.294.122A.487.487,0,0,1,3.4,16.5L2.083,15.32A1.251,1.251,0,0,0,.416,17.187l1.269,1.129A2.916,2.916,0,0,0,5.789,18.337ZM20,16.253A1.25,1.25,0,0,0,18.749,15H12.082a1.25,1.25,0,1,0,0,2.5h6.666A1.25,1.25,0,0,0,20,16.253Z" transform="translate(0.001 -0.026)" fill="#333"/>
</svg>
