<svg xmlns="http://www.w3.org/2000/svg" width="20" height="19.999" viewBox="0 0 20 19.999">
  <path id="pen-nib" d="M19.635,6.2a1.249,1.249,0,0,0-1.768,0l-1.2,1.2L12.6,3.333l1.2-1.2A1.25,1.25,0,0,0,12.034.366l-1.9,1.9L5.688,4.045A4.7,4.7,0,0,0,2.909,7.1L.108,16.65A2.612,2.612,0,0,0,3.35,19.893l9.549-2.8a4.7,4.7,0,0,0,3.057-2.778l1.778-4.444,1.9-1.9a1.249,1.249,0,0,0,0-1.768Zm-6,7.184a2.212,2.212,0,0,1-1.44,1.308L4.95,16.817,8.464,13.3a2.037,2.037,0,0,0,.287.029,2.083,2.083,0,1,0-2.083-2.083,2.025,2.025,0,0,0,.029.287L3.183,15.05,5.308,7.805A2.212,2.212,0,0,1,6.616,6.366L10.533,4.8,15.2,9.467l-1.567,3.916Z" transform="translate(-0.001 0)" fill="#333"/>
</svg>
