<svg xmlns="http://www.w3.org/2000/svg" width="20" height="18.951" viewBox="0 0 20 18.951">
  <path id="resources" d="M17.918,1.881H11.251A2.083,2.083,0,0,0,9.168,3.964v.25L8.113,2.386A2.113,2.113,0,0,0,6.845,1.362a2.083,2.083,0,0,0-2.372.969L.313,9.537a2.115,2.115,0,0,0-.25,1.609,2.083,2.083,0,0,0,2.021,1.568h2.25a5.9,5.9,0,1,0,11.334,0h2.25A2.083,2.083,0,0,0,20,10.631V3.964A2.083,2.083,0,0,0,17.918,1.881ZM2.809,10.215,6.277,4.207,8.786,8.548a5.877,5.877,0,0,0-3.011,1.667ZM10,17.715a3.4,3.4,0,1,1,3.4-3.4,3.4,3.4,0,0,1-3.4,3.4Zm7.5-7.5H14.227a6.228,6.228,0,0,0-2.559-1.552V4.381H17.5Z" transform="translate(-0.002 -1.284)" fill="#333"/>
</svg>
