<svg xmlns="http://www.w3.org/2000/svg" width="20" height="19.992" viewBox="0 0 20 19.992">
  <path id="bullseye-arrow" d="M19.3,6.381A9.864,9.864,0,0,1,19.992,10,10,10,0,1,1,10,0a9.831,9.831,0,0,1,3.615.691L12.495,1.808V2.932a7.494,7.494,0,1,0,5,7.064,7.335,7.335,0,0,0-.441-2.5h1.125l1.116-1.116ZM9.046,6.822,11.5,4.373a5.985,5.985,0,0,0-1.508-.2A5.831,5.831,0,1,0,15.818,10a5.985,5.985,0,0,0-.2-1.508L13.17,10.945A3.324,3.324,0,1,1,9.046,6.822Zm.841,1.516A1.656,1.656,0,0,0,8.33,10,1.687,1.687,0,0,0,10,11.67a1.651,1.651,0,0,0,1.666-1.558l4.273-4.273H17.5L20,3.34H16.668V0l-2.5,2.5V4.065L9.9,8.338Z" fill="#333"/>
</svg>
