<svg xmlns="http://www.w3.org/2000/svg" width="20" height="20" viewBox="0 0 20 20">
  <path id="calculator-simple" d="M20,10a1.25,1.25,0,0,1-1.25,1.25h-7.5v7.5a1.25,1.25,0,0,1-2.5,0v-7.5H1.25a1.25,1.25,0,0,1,0-2.5h7.5V1.25a1.25,1.25,0,0,1,2.5,0v7.5h7.5A1.25,1.25,0,0,1,20,10Zm-1.25,3.333h-5a1.25,1.25,0,0,0,0,2.5h5a1.25,1.25,0,0,0,0-2.5Zm0,4.167h-5a1.25,1.25,0,0,0,0,2.5h5a1.25,1.25,0,0,0,0-2.5ZM1.25,5h5a1.25,1.25,0,0,0,0-2.5h-5a1.25,1.25,0,0,0,0,2.5Zm12.5,0H15V6.25a1.25,1.25,0,0,0,2.5,0V5h1.25a1.25,1.25,0,0,0,0-2.5H17.5V1.25a1.25,1.25,0,0,0-2.5,0V2.5H13.75a1.25,1.25,0,0,0,0,2.5ZM6.3,13.7a1.249,1.249,0,0,0-1.768,0l-1.2,1.2-1.2-1.2A1.25,1.25,0,0,0,.367,15.467l1.2,1.2-1.2,1.2a1.25,1.25,0,0,0,1.768,1.767l1.2-1.2,1.2,1.2A1.25,1.25,0,0,0,6.3,17.865l-1.2-1.2,1.2-1.2a1.249,1.249,0,0,0,0-1.768Z" fill="#333"/>
</svg>
