<svg width="18" height="16" viewBox="0 0 18 16" fill="none" xmlns="http://www.w3.org/2000/svg">
<path d="M10.7733 1.77778L12.4 3.55556H16V14.2222H1.77778V3.55556H5.37778L7.00445 1.77778H10.7733ZM11.5556 0H6.22222L4.59556 1.77778H1.77778C0.8 1.77778 0 2.57778 0 3.55556V14.2222C0 15.2 0.8 16 1.77778 16H16C16.9778 16 17.7778 15.2 17.7778 14.2222V3.55556C17.7778 2.57778 16.9778 1.77778 16 1.77778H13.1822L11.5556 0ZM8.88889 6.22222C10.3556 6.22222 11.5556 7.42222 11.5556 8.88889C11.5556 10.3556 10.3556 11.5556 8.88889 11.5556C7.42222 11.5556 6.22222 10.3556 6.22222 8.88889C6.22222 7.42222 7.42222 6.22222 8.88889 6.22222ZM8.88889 4.44444C6.43556 4.44444 4.44444 6.43556 4.44444 8.88889C4.44444 11.3422 6.43556 13.3333 8.88889 13.3333C11.3422 13.3333 13.3333 11.3422 13.3333 8.88889C13.3333 6.43556 11.3422 4.44444 8.88889 4.44444Z" fill="#94A3B8"/>
</svg>
