<svg xmlns="http://www.w3.org/2000/svg" width="20" height="20.814" viewBox="0 0 20 20.814">
  <path id="gears" d="M9.178,9.511a1.276,1.276,0,0,0,.632.165,1.3,1.3,0,0,0,.632-2.433l-.554-.312a4.244,4.244,0,0,0,.087-.883,4.926,4.926,0,0,0-.087-.883l.554-.312A1.3,1.3,0,1,0,9.178,2.585L8.616,2.9a4.342,4.342,0,0,0-1.662-.97V1.269a1.3,1.3,0,1,0-2.6,0v.658a4.342,4.342,0,0,0-1.662.97l-.563-.312A1.3,1.3,0,1,0,.867,4.853l.554.312a4.244,4.244,0,0,0-.087.883,4.926,4.926,0,0,0,.087.883l-.554.312A1.3,1.3,0,0,0,1.5,9.676a1.276,1.276,0,0,0,.632-.165L2.694,9.2a4.342,4.342,0,0,0,1.662.97v.658a1.3,1.3,0,1,0,2.6,0v-.658A4.342,4.342,0,0,0,8.616,9.2l.563.312ZM5.655,7.788A1.732,1.732,0,1,1,7.386,6.057,1.737,1.737,0,0,1,5.655,7.788ZM19.534,15.9l-.554-.312a4.244,4.244,0,0,0,.087-.883,4.926,4.926,0,0,0-.087-.883l.554-.312a1.3,1.3,0,0,0-1.264-2.268l-.563.312a4.342,4.342,0,0,0-1.662-.97V9.927a1.3,1.3,0,1,0-2.6,0v.658a4.342,4.342,0,0,0-1.662.97l-.563-.312a1.3,1.3,0,1,0-1.264,2.268l.554.312a4.244,4.244,0,0,0-.087.883,4.926,4.926,0,0,0,.087.883l-.554.312a1.3,1.3,0,0,0,.632,2.433,1.276,1.276,0,0,0,.632-.165l.563-.312a4.342,4.342,0,0,0,1.662.97v.658a1.3,1.3,0,1,0,2.6,0v-.658a4.342,4.342,0,0,0,1.662-.97l.563.312a1.276,1.276,0,0,0,.632.165,1.3,1.3,0,0,0,.632-2.433Zm-4.788.545a1.732,1.732,0,1,1,1.732-1.732A1.737,1.737,0,0,1,14.746,16.446Z" transform="translate(-0.2 0.03)" fill="#333"/>
</svg>
