<svg xmlns="http://www.w3.org/2000/svg" width="20" height="20.005" viewBox="0 0 20 20.005">
  <path id="house-blank" d="M15.417,20H4.583A4.589,4.589,0,0,1,0,15.416V8.237a4.578,4.578,0,0,1,2.02-3.8L7.437.783a4.561,4.561,0,0,1,5.127,0L17.98,4.438A4.577,4.577,0,0,1,20,8.237v7.178A4.589,4.589,0,0,1,15.417,20ZM10,2.5a2.073,2.073,0,0,0-1.164.359L3.418,6.51A2.083,2.083,0,0,0,2.5,8.237v7.178A2.085,2.085,0,0,0,4.583,17.5H15.417A2.085,2.085,0,0,0,17.5,15.415V8.237a2.081,2.081,0,0,0-.918-1.727L11.165,2.856A2.08,2.08,0,0,0,10,2.5Z" transform="translate(0 0.005)" fill="#333"/>
</svg>
