<svg xmlns="http://www.w3.org/2000/svg" width="20" height="19.935" viewBox="0 0 20 19.935">
  <path id="usd-circle" d="M10,0A10.011,10.011,0,0,0,0,10c.5,13.248,19.5,13.245,20,0A10.011,10.011,0,0,0,10,0Zm0,17.5A7.508,7.508,0,0,1,2.5,10C2.877.064,17.124.067,17.5,10A7.508,7.508,0,0,1,10,17.5Zm3.333-5.489a2.994,2.994,0,0,1-2.083,2.848v.557a1.25,1.25,0,0,1-2.5,0v-.483a2.932,2.932,0,0,1-1.916-1.392A1.25,1.25,0,0,1,9,12.291a.414.414,0,0,0,.362.209h.984a.491.491,0,0,0,.182-.943l-1.98-.792a3,3,0,0,1,.2-5.624V4.583a1.25,1.25,0,0,1,2.5,0v.483a2.932,2.932,0,0,1,1.916,1.392A1.25,1.25,0,0,1,11,7.709.414.414,0,0,0,10.64,7.5H9.656a.491.491,0,0,0-.182.943l1.98.792a2.975,2.975,0,0,1,1.879,2.776Z" fill="#333"/>
</svg>
