<svg width="1408" height="373" viewBox="0 0 1408 373" fill="none" xmlns="http://www.w3.org/2000/svg">
<g clip-path="url(#clip0_1_11)">
<path d="M198.262 186.743C185.744 231.795 176.217 283.383 176.217 283.383H175.244C175.244 283.383 165.23 231.795 152.712 186.743L102.156 7.02199H0V364.935H66.6204V159.698C66.6204 130.637 63.6302 85.5849 63.6302 85.5849H64.6037C64.6037 85.5849 72.601 127.647 80.1114 153.65L140.195 364.935H209.806L271.419 153.65C278.93 127.647 286.927 85.5849 286.927 85.5849H287.9C287.9 85.5849 284.91 130.637 284.91 159.698V364.935H352.504V7.02199H248.818L198.262 186.743Z" fill="black"/>
<path d="M1235.75 0C1175.87 0 1128.38 25.5851 1098.47 67.2304L1110.09 7.02199H1006.96L920.864 192.722C900.35 237.288 884.286 285.329 884.286 285.329H883.799C883.799 285.329 883.312 233.742 879.279 183.684L865.788 6.95247H766.135L721.837 236.384C710.502 178.887 655.843 163.383 590.405 149.13C537.345 137.589 512.31 129.107 512.31 100.046C512.31 74.5305 537.831 57.9836 576.914 57.9836C615.996 57.9836 642.004 75.9905 646.037 112.074H715.648C710.015 40.0462 657.929 0.486673 577.331 0.486673C496.733 0.486673 440.126 37.0567 440.126 107.624C440.126 182.224 498.68 199.258 562.797 213.788C617.387 226.303 651.462 233.325 651.462 268.365C651.462 301.39 618.916 314.391 581.851 314.391C530.808 314.391 506.26 297.357 501.253 254.321H435.675V7.02199H363.074V364.935H435.675V288.527C451.879 342.687 503.617 372.93 584.911 372.93C638.318 372.93 681.921 355.063 705.356 321.969L697.081 364.935H762.658L802.227 159.698C807.721 130.637 813.771 84.6115 813.771 84.6115H814.744C814.744 84.6115 815.231 127.161 817.248 153.719L834.285 365.005H902.366L1000.98 153.232C1015.02 123.198 1030.53 84.6811 1030.53 84.6811H1031.5C1031.5 84.6811 1019.96 128.76 1013.98 159.768L974.411 365.005H1041.03L1067.04 230.405C1082.83 314.738 1145.06 373.069 1235.82 373.069C1341.45 373.069 1408.07 293.95 1408.07 186.813C1408.07 79.6753 1341.38 0 1235.75 0ZM1236.23 313.417C1170.66 313.417 1137.07 257.867 1137.07 186.743C1137.07 115.62 1170.59 59.5827 1236.23 59.5827C1301.88 59.5827 1333.87 115.133 1333.87 186.743C1333.87 258.354 1301.81 313.417 1236.23 313.417Z" fill="black"/>
</g>
<defs>
<clipPath id="clip0_1_11">
<rect width="1408" height="373" fill="white"/>
</clipPath>
</defs>
</svg>
